<?xml version="1.0" encoding="utf-8"?>
<!-- Generator: Adobe Illustrator 26.0.1, SVG Export Plug-In . SVG Version: 6.00 Build 0)  -->
<svg version="1.1" id="Layer_1" xmlns="http://www.w3.org/2000/svg" xmlns:xlink="http://www.w3.org/1999/xlink" x="0px" y="0px"
	 viewBox="0 0 1619.4 1659.7" style="enable-background:new 0 0 1619.4 1659.7;" xml:space="preserve">
<path d="M691.7,1654.1L1129.6,972l22,0.9c0.2,0,0.3,0,0.5,0h0h0h0h0h0h0h0h0h0h0h0h0h0c3.2,0,6.5,0,9.7,0h0c3.2,0,6.4,0,9.6,0h0
	c3.2,0,6.4,0,9.6,0h0l9.6,0h0c3.2,0,6.4,0,9.5,0h0c3.2,0,6.3,0,9.5,0h0c3.2,0,6.3,0,9.5,0h0c6.3,0,12.6,0,18.8,0c3.1,0,6.2,0,9.3,0
	c3.1,0,6.2,0,9.3-0.1c6.2-0.1,12.3-0.1,18.4-0.2h0c3.1,0,6.1-0.1,9.1-0.2c3-0.1,6.1-0.1,9.1-0.2h0c3-0.1,6-0.1,9-0.2h0
	c3-0.1,6-0.2,9-0.3c6-0.2,11.9-0.4,17.7-0.7h0c2.9-0.1,5.9-0.3,8.8-0.4c2.9-0.2,5.8-0.3,8.7-0.5c5.8-0.3,11.5-0.7,17.2-1.2h0
	c2.8-0.2,5.7-0.4,8.5-0.7c2.8-0.2,5.6-0.5,8.4-0.8c2.8-0.3,5.6-0.5,8.3-0.8h0c2.8-0.3,5.5-0.6,8.2-0.9c2.7-0.3,5.4-0.7,8.2-1
	c2.7-0.3,5.4-0.7,8.1-1.1h0c2.7-0.4,5.3-0.8,8-1.2c2.6-0.4,5.3-0.8,7.9-1.3h0c2.6-0.4,5.2-0.9,7.8-1.4c2.6-0.5,5.1-1,7.7-1.5
	c2.6-0.5,5.1-1,7.6-1.6c2.5-0.5,5-1.1,7.5-1.7c2.5-0.6,5-1.2,7.4-1.8c4.9-1.2,9.7-2.5,14.5-3.9c2.4-0.7,4.7-1.4,7.1-2.2
	c174.3-54.8,174.3-180.2,0-235.1c-2.3-0.7-4.7-1.5-7.1-2.2c-4.8-1.4-9.6-2.7-14.5-3.9c-2.5-0.6-4.9-1.2-7.4-1.8
	c-2.5-0.6-5-1.1-7.5-1.7c-2.5-0.5-5.1-1.1-7.6-1.6c-2.6-0.5-5.1-1-7.7-1.5c-2.6-0.5-5.2-0.9-7.8-1.4h0c-2.6-0.4-5.2-0.9-7.9-1.3
	c-2.6-0.4-5.3-0.8-8-1.2h0c-2.7-0.4-5.4-0.7-8.1-1.1s-5.4-0.7-8.2-1c-2.7-0.3-5.5-0.6-8.2-0.9h0c-2.8-0.3-5.5-0.6-8.3-0.8
	c-2.8-0.3-5.6-0.5-8.4-0.8c-2.8-0.2-5.6-0.5-8.5-0.7h0c-5.7-0.4-11.4-0.8-17.2-1.2c-2.9-0.2-5.8-0.3-8.7-0.5
	c-2.9-0.2-5.8-0.3-8.8-0.4h0c-5.9-0.3-11.8-0.5-17.7-0.7c-3-0.1-6-0.2-9-0.3h0c-3-0.1-6-0.2-9-0.2h0c-3-0.1-6-0.1-9.1-0.2
	c-3-0.1-6.1-0.1-9.1-0.2h0c-6.1-0.1-12.2-0.2-18.4-0.2c-3.1,0-6.2,0-9.3-0.1c-3.1,0-6.2,0-9.3,0c-6.2,0-12.5,0-18.8,0h0
	c-3.1,0-6.3,0-9.5,0h0c-3.2,0-6.3,0-9.5,0h0c-3.2,0-6.4,0-9.5,0h0l-9.6,0h0c-3.2,0-6.4,0-9.6,0h0c-3.2,0-6.4,0-9.6,0h0
	c-3.2,0-6.4,0-9.7,0h0h0h0h0h0h0h0h0h0h0h0h0h0c-0.2,0-0.3,0-0.5,0l-22,0.9L691.7,5.6c-2.3-3.6-6-5.6-10.2-5.6h-94.1
	c-3.9,0-7.3,1.7-9.6,4.7c-2.4,3.1-3.1,6.8-2.1,10.5l184.2,687.5l-487.6,19.9l-204-193.8c-2.5-2.3-5.4-3.5-8.8-3.5H12.8
	c-4.4,0-8.3,2.1-10.7,5.8c-2.4,3.7-2.8,8.1-1,12.1L103.4,776c0,0,0,0,0,0c-1.1,0.2-2.1,0.3-3.2,0.5c-1.1,0.2-2.1,0.4-3.2,0.6
	c-1,0.2-2.1,0.4-3.1,0.6c-1,0.2-2.1,0.4-3.1,0.6c-1,0.2-2,0.4-3,0.7c-1,0.2-2,0.5-3,0.7c-2,0.5-3.9,1-5.9,1.6
	c-1,0.3-1.9,0.6-2.9,0.9c-3.8,1.2-7.5,2.5-11,4c-0.9,0.4-1.8,0.8-2.6,1.1c-1.7,0.8-3.5,1.6-5.1,2.5c-1.7,0.9-3.3,1.8-4.9,2.7
	c-21.2,12.4-31.8,24.8-32.3,37c-0.5,13.8,12,27.4,37.2,40.3c1.7,0.9,3.4,1.7,5.1,2.5c0.9,0.4,1.8,0.8,2.6,1.1c3.6,1.5,7.2,2.8,11,4
	c1,0.3,1.9,0.6,2.9,0.9c1.9,0.6,3.9,1.1,5.9,1.6c1,0.2,2,0.5,3,0.7c1,0.2,2,0.5,3,0.7c1,0.2,2,0.4,3.1,0.6c1,0.2,2.1,0.4,3.1,0.6
	c1,0.2,2.1,0.4,3.2,0.6c1.1,0.2,2.1,0.3,3.2,0.5c1.1,0.2,2.1,0.3,3.2,0.5c0.5,0.1,0.9,0.1,1.4,0.2L1.1,1127.6
	c-1.8,4.1-1.4,8.4,1,12.1c2.4,3.7,6.3,5.8,10.7,5.8h46.7c3.4,0,6.3-1.2,8.8-3.5l215.3-204.5l476.3,19.4l-184.2,687.5
	c-1,3.8-0.3,7.4,2.1,10.5c2.4,3.1,5.7,4.7,9.6,4.7h94.1C685.8,1659.7,689.4,1657.7,691.7,1654.1z"/>
</svg>
