<svg width="160" height="207" viewBox="0 0 160 207" fill="none" xmlns="http://www.w3.org/2000/svg">
<path d="M143.96 78.4C143.96 43.0262 115.284 14.35 79.91 14.35C44.5362 14.35 15.86 43.0262 15.86 78.4V128.44C15.86 163.814 44.5362 192.49 79.91 192.49C115.284 192.49 143.96 163.814 143.96 128.44V78.4Z" stroke="#231F20" stroke-width="3" stroke-linecap="round" stroke-linejoin="round"/>
<path d="M82.98 1.50999H76.84C35.2364 1.50999 1.51001 35.2364 1.51001 76.84V130.01C1.51001 171.614 35.2364 205.34 76.84 205.34H82.98C124.584 205.34 158.31 171.614 158.31 130.01V76.84C158.31 35.2364 124.584 1.50999 82.98 1.50999Z" stroke="#231F20" stroke-width="3" stroke-linecap="round" stroke-linejoin="round"/>
<path d="M19.45 56.34H140.37" stroke="#231F20" stroke-width="3" stroke-linecap="round" stroke-linejoin="round"/>
<path d="M58.18 44.34H101.64" stroke="#231F20" stroke-width="3" stroke-linecap="round" stroke-linejoin="round"/>
<path d="M79.91 192.49L44.49 126.39L36.17 92.93H51.79L65.97 116.4L137.25 157.01" stroke="#231F20" stroke-width="3" stroke-linecap="round" stroke-linejoin="round"/>
<path d="M143.95 113.3C141.843 111.255 139.179 109.878 136.292 109.34C133.406 108.802 130.425 109.128 127.723 110.277C125.02 111.426 122.717 113.346 121.102 115.798C119.486 118.25 118.63 121.124 118.64 124.06C118.64 124.4 118.64 124.74 118.69 125.06C116.721 123.691 114.302 123.13 111.932 123.492C109.562 123.854 107.421 125.112 105.951 127.007C104.481 128.901 103.794 131.287 104.032 133.673C104.27 136.06 105.415 138.263 107.23 139.83" stroke="#231F20" stroke-width="3" stroke-linecap="round" stroke-linejoin="round"/>
<path d="M45.51 136.92C44.2722 134.695 42.3308 132.943 39.9903 131.94C37.6498 130.937 35.0425 130.739 32.5773 131.377C30.1122 132.015 27.9286 133.454 26.369 135.467C24.8095 137.48 23.9622 139.954 23.96 142.5V142.71C21.826 142.707 19.7124 143.125 17.74 143.94" stroke="#231F20" stroke-width="3" stroke-linecap="round" stroke-linejoin="round"/>
<path d="M45.51 136.92C46.5031 135.972 47.6581 135.21 48.92 134.67" stroke="#231F20" stroke-width="3" stroke-linecap="round" stroke-linejoin="round"/>
<path d="M102.08 106.56C99.9344 103.753 96.9623 101.691 93.5824 100.663C90.2026 99.6346 86.5854 99.6928 83.2403 100.829C79.8953 101.966 76.9911 104.123 74.9369 106.997C72.8827 109.871 71.7821 113.317 71.79 116.85C71.7954 117.856 71.8858 118.859 72.06 119.85" stroke="#231F20" stroke-width="3" stroke-linecap="round" stroke-linejoin="round"/>
<path d="M102.08 106.56C103.262 105.191 104.725 104.093 106.369 103.34C108.014 102.588 109.801 102.199 111.61 102.2C112.874 102.201 114.131 102.389 115.34 102.76" stroke="#231F20" stroke-width="3" stroke-linecap="round" stroke-linejoin="round"/>
<path d="M115.34 102.76C114.483 100.585 114.042 98.2679 114.04 95.93C114.043 90.9165 116.036 86.1092 119.582 82.5651C123.128 79.0209 127.937 77.03 132.95 77.03C136.86 77.0554 140.679 78.2081 143.95 80.35" stroke="#231F20" stroke-width="3" stroke-linecap="round" stroke-linejoin="round"/>
</svg>
