<?xml version="1.0" encoding="utf-8"?>
<!-- Generator: Adobe Illustrator 26.0.1, SVG Export Plug-In . SVG Version: 6.00 Build 0)  -->
<svg version="1.1" id="Layer_1" xmlns="http://www.w3.org/2000/svg" xmlns:xlink="http://www.w3.org/1999/xlink" x="0px" y="0px"
	 viewBox="0 0 352.6 151.8" style="enable-background:new 0 0 352.6 151.8;" xml:space="preserve">
<g>
	<path d="M28.7,112.2L16,69l5.4-1.9l10.7,38.6l10.1-45.7l5.9-2L58.3,97l10.7-46l5.2-1.8L61.4,101l-6.5,2.2L47.3,75l-2.2-10l-0.1,0
		l-2.2,11.5L35.2,110L28.7,112.2z M82.5,93.8V41.3l5.2-1.8v22c1.1-2.5,2.6-4.6,4.5-6.2c1.9-1.6,3.9-2.8,6.1-3.5
		c2.4-0.8,4.5-1,6.4-0.7c1.9,0.3,3.5,1.3,4.6,2.9c1.2,1.6,1.7,4,1.7,7.1v23l-5.2,1.8v-21c0-4-0.8-6.5-2.3-7.5
		c-1.5-1-3.5-1.2-5.7-0.4c-1.6,0.5-3.1,1.5-4.7,2.8c-1.6,1.4-2.9,3.1-3.9,5.3c-1,2.2-1.5,4.8-1.5,7.9V92L82.5,93.8z M136.7,76.1
		c-3.1,1.1-5.9,1.3-8.3,0.6c-2.4-0.7-4.3-2.2-5.7-4.5c-1.4-2.3-2-5.5-2-9.4c0-3.9,0.7-7.5,2-10.7c1.3-3.3,3.2-6,5.6-8.3
		c2.4-2.3,5-4,8-5c3.1-1,5.7-1.2,7.8-0.5c2.2,0.7,3.8,2.1,4.9,4.2c1.1,2.1,1.7,4.7,1.7,7.7c0,0.8,0,1.6-0.1,2.3
		c0,0.7-0.1,1.3-0.2,1.9l-26.4,9v-5.1l24.1-8.2l-2.7,1.5c0-3.5-0.9-5.8-2.6-7.1c-1.7-1.3-4-1.5-6.8-0.5c-2.1,0.7-4,1.9-5.5,3.5
		c-1.5,1.6-2.7,3.6-3.6,5.9c-0.8,2.3-1.3,4.9-1.3,7.8c0,2.8,0.4,5.1,1.3,6.9c0.9,1.8,2.1,2.9,3.7,3.5c1.6,0.5,3.5,0.4,5.7-0.3
		c2.4-0.8,4.3-2,5.9-3.5c1.5-1.5,2.7-3.3,3.6-5.3l4.1,1.3c-0.8,1.9-1.9,3.7-3.2,5.3c-1.3,1.6-2.8,3.1-4.5,4.3
		C140.7,74.4,138.8,75.3,136.7,76.1z M174.4,63.2c-3.1,1.1-5.9,1.3-8.3,0.6c-2.4-0.7-4.3-2.2-5.7-4.5c-1.4-2.3-2-5.5-2-9.4
		c0-3.9,0.7-7.5,2-10.7c1.3-3.3,3.2-6,5.6-8.3c2.4-2.3,5-4,8-5c3.1-1,5.7-1.2,7.8-0.5c2.2,0.7,3.8,2.1,4.9,4.2
		c1.1,2.1,1.7,4.7,1.7,7.7c0,0.8,0,1.6-0.1,2.3c0,0.7-0.1,1.3-0.2,1.9l-26.4,9v-5.1l24.1-8.2l-2.7,1.5c0-3.5-0.9-5.8-2.6-7.1
		c-1.7-1.3-4-1.5-6.8-0.5c-2.1,0.7-4,1.9-5.5,3.5c-1.5,1.6-2.7,3.6-3.6,5.9c-0.8,2.3-1.3,4.9-1.3,7.8c0,2.8,0.4,5.1,1.3,6.9
		c0.9,1.8,2.1,2.9,3.7,3.5c1.6,0.5,3.5,0.4,5.7-0.3c2.4-0.8,4.3-2,5.9-3.5c1.5-1.5,2.7-3.3,3.6-5.3l4.1,1.3
		c-0.8,1.9-1.9,3.7-3.2,5.3c-1.3,1.6-2.8,3.1-4.5,4.3C178.4,61.5,176.5,62.5,174.4,63.2z M203.4,0v43.4c0,1.8,0.3,3,0.9,3.5
		c0.6,0.5,1.6,0.5,2.9,0c0.9-0.3,1.6-0.6,2.2-1c0.6-0.3,1.3-0.9,2.3-1.6l-0.8,5.3c-0.7,0.6-1.5,1.1-2.3,1.5
		c-0.8,0.5-1.7,0.8-2.5,1.1c-2.7,0.9-4.6,0.8-5.9-0.4c-1.3-1.1-1.9-3.3-1.9-6.6V1.8L203.4,0z M230.2,44.1c-3.2,1.1-6.1,1.3-8.8,0.8
		c-2.7-0.6-4.7-2-6.2-4.2l4.4-5c1,1.9,2.4,3.1,4.2,3.7c1.9,0.6,4.1,0.5,6.7-0.4c2.3-0.8,4.1-1.9,5.4-3.3c1.3-1.4,2-2.9,2-4.5
		c0-1-0.3-1.8-0.9-2.5c-0.6-0.6-1.7-0.9-3.4-0.7l-7.8,0.9c-3.2,0.4-5.5-0.1-6.8-1.3c-1.4-1.2-2.1-3.1-2.1-5.6c0-2,0.5-3.9,1.5-5.9
		c1-2,2.5-3.8,4.4-5.4c1.9-1.6,4.1-2.9,6.7-3.8c3.2-1.1,5.9-1.3,8.2-0.7c2.2,0.6,3.9,2,5,4.2l-4.4,4.7c-0.7-1.9-1.9-3-3.6-3.4
		c-1.7-0.4-3.4-0.3-5.2,0.3c-1.6,0.5-2.9,1.2-4,2.1c-1.1,0.9-2,1.8-2.5,2.8c-0.6,1-0.9,2.1-0.9,3.1c0,1.1,0.3,1.9,1,2.6
		c0.7,0.7,1.9,0.9,3.7,0.7l8.2-0.9c3.1-0.4,5.2,0,6.4,1.1c1.2,1.1,1.8,2.8,1.8,5c0,2.3-0.5,4.4-1.6,6.5c-1.1,2.1-2.6,3.9-4.6,5.5
		C235,42,232.8,43.3,230.2,44.1z M139.4,138.2l-5.6,1.9l-4.6-11.6l-19.5,6.7l-4.6,14.7l-5.5,1.9l16.8-53.3l6.2-2.1L139.4,138.2z
		 M111.6,129.1l15.8-5.4l-7.9-20.7L111.6,129.1z M147.2,150.7V99.6l4.6-1.6l0.5,8.6l-0.7-0.8c0.6-1.9,1.4-3.6,2.5-5.3
		c1.1-1.7,2.5-3.1,4.1-4.4c1.6-1.3,3.4-2.2,5.2-2.9c2.7-0.9,5.1-1,7.4-0.3c2.2,0.7,4,2.2,5.4,4.6c1.4,2.3,2,5.5,2,9.4
		c0,3.9-0.7,7.5-2.1,10.7c-1.4,3.3-3.2,6-5.5,8.3c-2.3,2.3-4.8,3.9-7.5,4.8c-2.7,0.9-5.1,1-7.1,0.2c-2-0.8-3.5-2.1-4.3-4.1l0.7-1.3
		v23.3L147.2,150.7z M162.7,126c3.2-1.1,5.7-3.2,7.6-6.3c1.8-3.1,2.7-6.7,2.7-10.9c0-4.1-0.9-7.1-2.6-9c-1.8-1.9-4.2-2.3-7.4-1.2
		c-2.1,0.7-3.9,1.9-5.5,3.6c-1.6,1.7-2.8,3.7-3.7,6c-0.9,2.3-1.3,4.9-1.3,7.7c0,2.7,0.4,5,1.3,6.8c0.8,1.8,2,3,3.6,3.6
		C158.8,126.7,160.6,126.7,162.7,126z M188.2,136.7V85.6l4.6-1.6l0.5,8.6l-0.7-0.8c0.6-1.9,1.4-3.6,2.5-5.3c1.1-1.7,2.5-3.1,4.1-4.4
		c1.6-1.3,3.4-2.2,5.2-2.9c2.7-0.9,5.1-1,7.4-0.3c2.2,0.7,4,2.2,5.4,4.6c1.4,2.3,2,5.5,2,9.4c0,3.9-0.7,7.5-2.1,10.7
		c-1.4,3.3-3.2,6-5.5,8.3c-2.3,2.3-4.8,3.9-7.5,4.8c-2.7,0.9-5.1,1-7.1,0.2c-2-0.8-3.5-2.1-4.3-4.1l0.7-1.3v23.3L188.2,136.7z
		 M203.7,112c3.2-1.1,5.7-3.2,7.6-6.3c1.8-3.1,2.7-6.7,2.7-10.9c0-4.1-0.9-7.1-2.6-9c-1.8-1.9-4.2-2.3-7.4-1.2
		c-2.1,0.7-3.9,1.9-5.5,3.6c-1.6,1.7-2.8,3.7-3.7,6c-0.9,2.3-1.3,4.9-1.3,7.7c0,2.7,0.4,5,1.3,6.8c0.8,1.8,2,3,3.6,3.6
		C199.8,112.7,201.6,112.7,203.7,112z"/>
	<g>
		<g>
			<path d="M262.2,43.7C187.1,70.3,76.4,107.2,0,133.2c0,0,0-0.1,0-0.1C76.8,106.9,186.3,68.3,262.2,43.7L262.2,43.7z"/>
		</g>
	</g>
	<path d="M313,32.3l3.9,12.2c0.2,0.8,1.3,1.1,2.1,0.7l2.1-1.2c1.4-0.9,2.5-2.3,2.8-4l1.7-12.8l25.1-9.9c2.5-1,2.8-4.6-0.1-5.8l0,0
		l-0.6-0.3l-1.7-0.8c-2.6-1.1-5.6-1.1-8.2-0.2l-19.1,7.5L281,7.7c-1.1-0.3-2.3-0.2-3.3,0.2l-4.3,1.7c-1.1,0.4-1.2,2,0,2.5l29.5,12.8
		l-24,8.3l-8.5-2.1l-5.4,2.1l3.9,5.2c-0.3,0.4-0.4,0.7-0.5,1.2c-0.5,2.2,1.7,4.1,3.8,3.5L313,32.3z"/>
</g>
</svg>
